HIERARCHY
ROOT joint_Root
{
	OFFSET 0.0 0.0 0.0
	CHANNELS 6 Xposition Yposition Zposition Zrotation Xrotation Yrotation 
	JOINT Hips
	{
		OFFSET 4.5925 91.4895 -427.239
		CHANNELS 6 Xposition Yposition Zposition Zrotation Xrotation Yrotation 
		JOINT Spine
		{
			OFFSET 15.7357 0.0 0.0
			CHANNELS 6 Xposition Yposition Zposition Zrotation Xrotation Yrotation 
			JOINT Chest
			{
				OFFSET 8.98455 -0.406207 0.0
				CHANNELS 6 Xposition Yposition Zposition Zrotation Xrotation Yrotation 
				JOINT Neck
				{
					OFFSET 16.3773 0.0 0.0
					CHANNELS 6 Xposition Yposition Zposition Zrotation Xrotation Yrotation 
					JOINT Head
					{
						OFFSET 6.45672 0.0 0.0
						CHANNELS 6 Xposition Yposition Zposition Zrotation Xrotation Yrotation 
						End Site
						{
							OFFSET 0.0 0.0 0.0
						}
					}
				}
				JOINT Shoulder_L
				{
					OFFSET 12.9942 -0.242716 4.98039
					CHANNELS 6 Xposition Yposition Zposition Zrotation Xrotation Yrotation 
					JOINT UpperArm_L
					{
						OFFSET 5.34809 0.0 0.0
						CHANNELS 6 Xposition Yposition Zposition Zrotation Xrotation Yrotation 
						JOINT LowerArm_L
						{
							OFFSET 24.3286 1.87007e-05 0.0
							CHANNELS 6 Xposition Yposition Zposition Zrotation Xrotation Yrotation 
							JOINT Hand_L
							{
								OFFSET 22.2916 0.0 0.0
								CHANNELS 6 Xposition Yposition Zposition Zrotation Xrotation Yrotation 
								End Site
								{
									OFFSET 0.0 0.0 0.0
								}
							}
						}
					}
				}
				JOINT Shoulder_R
				{
					OFFSET 12.9945 -0.242716 -4.98039
					CHANNELS 6 Xposition Yposition Zposition Zrotation Xrotation Yrotation 
					JOINT UpperArm_R
					{
						OFFSET -5.34813 0.0 0.0
						CHANNELS 6 Xposition Yposition Zposition Zrotation Xrotation Yrotation 
						JOINT LowerArm_R
						{
							OFFSET -24.3289 0.000322201 0.0
							CHANNELS 6 Xposition Yposition Zposition Zrotation Xrotation Yrotation 
							JOINT Hand_R
							{
								OFFSET -22.2915 -0.000108084 0.0
								CHANNELS 6 Xposition Yposition Zposition Zrotation Xrotation Yrotation 
								End Site
								{
									OFFSET 0.0 0.0 0.0
								}
							}
						}
					}
				}
			}
		}
		JOINT UpperLeg_L
		{
			OFFSET -2.19248 -6.46944 0.0
			CHANNELS 6 Xposition Yposition Zposition Zrotation Xrotation Yrotation 
			JOINT LowerLeg_L
			{
				OFFSET 39.0811 0.0 -1.23785e-05
				CHANNELS 6 Xposition Yposition Zposition Zrotation Xrotation Yrotation 
				JOINT Foot_L
				{
					OFFSET 40.9854 0.0 -1.26872e-05
					CHANNELS 6 Xposition Yposition Zposition Zrotation Xrotation Yrotation 
					JOINT Toes_L
					{
						OFFSET 11.7543 0.0 0.0
						CHANNELS 6 Xposition Yposition Zposition Zrotation Xrotation Yrotation 
						End Site
						{
							OFFSET 0.0 0.0 0.0
						}
					}
				}
			}
		}
		JOINT UpperLeg_R
		{
			OFFSET -2.19251 6.46944 0.0
			CHANNELS 6 Xposition Yposition Zposition Zrotation Xrotation Yrotation 
			JOINT LowerLeg_R
			{
				OFFSET -39.0811 -0.00228153 -0.0401928
				CHANNELS 6 Xposition Yposition Zposition Zrotation Xrotation Yrotation 
				JOINT Foot_R
				{
					OFFSET -40.9854 0.0 0.0
					CHANNELS 6 Xposition Yposition Zposition Zrotation Xrotation Yrotation 
					JOINT Toes_R
					{
						OFFSET -11.7543 0.0 0.0
						CHANNELS 6 Xposition Yposition Zposition Zrotation Xrotation Yrotation 
						End Site
						{
							OFFSET 0.0 0.0 0.0
						}
					}
				}
			}
		}
	}
}
MOTION
Frames:	4
Frame Time:	0.0333333
0.000000 0.000000 0.000000 0.000000 0.000000 -0.000000 -1.135670 90.158300 -6.631940 89.593300 -1.232490 11.759900 15.735700 0.000005 -0.000001 90.626200 75.473000 -90.004100 8.984550 -0.406207 -0.000000 21.284800 0.382499 1.177200 16.377300 -0.000001 -0.000001 4.986260 -3.910780 3.284860 6.456720 -0.000001 -0.000000 -12.396800 -4.433120 6.356220 12.994200 -0.242716 4.980390 -90.469900 1.496790 -72.569200 5.348090 -0.000007 -0.000001 -74.433200 -30.156700 -74.350500 24.328600 0.000019 0.000005 45.219000 -2.075570 -92.058500 22.291600 -0.000001 0.000005 29.731100 4.711880 12.943600 12.994500 -0.242716 -4.980390 89.087200 9.581130 -84.531800 -5.348130 -0.000001 -0.000004 -51.922400 33.550800 -29.367400 -24.328900 0.000322 -0.000009 1.956330 5.016010 -21.349400 -22.291500 -0.000108 -0.000004 15.973000 5.388780 -2.576320 -2.192480 -6.469440 -0.000000 -174.854000 -11.204200 -5.513250 39.081100 -0.000007 -0.000012 -0.168213 0.237038 35.361700 40.985400 -0.000006 -0.000013 0.512526 6.102500 -67.978900 11.754300 -0.000000 0.000003 -0.000080 -0.000854 -16.610500 -2.192510 6.469440 -0.000001 175.605000 20.011800 175.846000 -39.081100 -0.002282 -0.040193 -0.144328 0.209110 35.219800 -40.985400 0.000008 0.000006 4.888460 10.082200 -69.429300 -11.754300 -0.000006 -0.000006 -0.003560 -0.046786 -18.476100
0.000000 0.000000 0.000000 0.000000 0.000000 -0.000000 -1.092990 90.157600 -6.719590 89.605200 -1.328850 11.755900 15.735700 0.000005 -0.000001 90.545600 75.449500 -89.937900 8.984550 -0.406207 -0.000000 21.332300 0.341623 1.155780 16.377300 -0.000001 -0.000001 5.009830 -3.904890 3.176850 6.456720 -0.000001 -0.000000 -12.357700 -4.403220 6.377630 12.994200 -0.242716 4.980390 -90.436400 1.392000 -72.592600 5.348090 -0.000007 -0.000001 -72.509000 -29.394100 -75.063000 24.328600 0.000019 0.000005 45.156100 -2.292300 -92.278000 22.291600 -0.000001 0.000005 29.576200 4.718870 12.817100 12.994500 -0.242716 -4.980390 89.089700 9.552310 -84.531000 -5.348130 -0.000001 -0.000004 -52.017800 33.456200 -29.551100 -24.328900 0.000322 -0.000009 1.931170 4.886650 -21.605600 -22.291500 -0.000108 -0.000004 15.958100 5.389020 -2.583940 -2.192480 -6.469440 -0.000000 -174.888000 -11.283800 -5.570660 39.081100 -0.000007 -0.000012 -0.168248 0.237026 35.368600 40.985400 -0.000006 -0.000013 0.542306 6.089210 -67.932700 11.754300 -0.000000 0.000003 -0.000075 -0.000802 -16.608500 -2.192510 6.469440 -0.000001 175.593000 20.012700 175.748000 -39.081100 -0.002282 -0.040193 -0.143982 0.208479 35.237900 -40.985400 0.000008 0.000006 4.886430 10.165000 -69.356400 -11.754300 -0.000006 -0.000006 -0.003625 -0.047478 -18.504200
0.000000 0.000000 0.000000 0.000000 0.000000 -0.000000 -1.051220 90.165800 -6.787930 89.579600 -1.454790 11.794500 15.735700 0.000005 -0.000001 90.465000 75.415200 -89.846700 8.984550 -0.406207 -0.000000 21.401500 0.303865 1.184100 16.377300 -0.000001 -0.000001 5.089270 -3.928700 3.076870 6.456720 -0.000001 -0.000000 -12.358000 -4.420230 6.390980 12.994200 -0.242716 4.980390 -90.406300 1.296160 -72.594800 5.348090 -0.000007 -0.000001 -70.367600 -28.655000 -75.625800 24.328600 0.000019 0.000005 45.403900 -2.628220 -92.588800 22.291600 -0.000001 0.000005 29.346800 4.714310 12.899500 12.994500 -0.242716 -4.980390 89.084200 9.549700 -84.496500 -5.348130 -0.000001 -0.000004 -51.937500 33.495600 -29.747000 -24.328900 0.000322 -0.000009 1.925710 4.794780 -21.923300 -22.291500 -0.000108 -0.000004 15.993400 5.390370 -2.627090 -2.192480 -6.469440 -0.000000 -174.875000 -11.384800 -5.555970 39.081100 -0.000007 -0.000012 -0.166165 0.234230 35.352500 40.985400 -0.000006 -0.000013 0.563665 6.035310 -67.888100 11.754300 -0.000000 0.000003 -0.000077 -0.000820 -16.609200 -2.192510 6.469440 -0.000001 175.581000 20.060600 175.755000 -39.081100 -0.002282 -0.040193 -0.140755 0.204310 35.185100 -40.985400 0.000008 0.000006 4.876450 10.355500 -69.267000 -11.754300 -0.000006 -0.000006 -0.003671 -0.047977 -18.524500
0.000000 0.000000 0.000000 0.000000 0.000000 -0.000000 -1.009360 90.169200 -6.847340 89.563300 -1.630440 11.798000 15.735700 0.000005 -0.000001 90.414600 75.385700 -89.798000 8.984550 -0.406207 -0.000000 21.460800 0.279337 1.185240 16.377300 -0.000001 -0.000001 5.107650 -3.929050 2.993230 6.456720 -0.000001 -0.000000 -12.355400 -4.447980 6.495280 12.994200 -0.242716 4.980390 -90.381900 1.213370 -72.526200 5.348090 -0.000007 -0.000001 -68.121800 -27.878000 -76.207000 24.328600 0.000019 0.000005 45.438500 -3.028390 -92.978300 22.291600 -0.000001 0.000005 29.274000 4.726460 12.679200 12.994500 -0.242716 -4.980390 89.085000 9.556360 -84.505000 -5.348130 -0.000001 -0.000004 -51.858700 33.559500 -29.898500 -24.328900 0.000322 -0.000009 1.912830 4.698140 -22.194500 -22.291500 -0.000108 -0.000004 16.059900 5.391490 -2.663000 -2.192480 -6.469440 -0.000000 -174.868000 -11.447800 -5.564300 39.081100 -0.000007 -0.000012 -0.166385 0.234557 35.350700 40.985400 -0.000006 -0.000013 0.564658 5.962810 -67.869300 11.754300 -0.000000 0.000003 -0.000081 -0.000860 -16.610700 -2.192510 6.469440 -0.000001 175.570000 20.048200 175.715000 -39.081100 -0.002282 -0.040193 -0.145061 0.210668 35.153100 -40.985400 0.000008 0.000006 4.811300 10.548600 -69.178700 -11.754300 -0.000006 -0.000006 -0.003527 -0.046423 -18.461300
